PathFileType	4	(X/Y/Z)	/Users/itak/Documents/Research/Walk-IL/dataset/trc/00306_00010.trc
DataRate	CameraRate	NumFrames	NumMarkers	Units	OrigDataRate	OrigDataStartFrame	OrigNumFrames
100.000000	100.000000	4	56	mm	100.000000	159	425
Frame#	Time	RPSI			LPSI			L3			STRN			T10			C7			CLAV			RBAK			LBAK			LSHO			LUPA			LAEL			LAOL			LWPS			LFRA			LIFD			LHPS			LHTS			RSHO			RUPA			RAEL			RAOL			RWTS			RWPS			RFRA			RIFD			RBHD			LFHD			RFHD			LBHD			LHIP			RASI			LASI			LKNE			LTHI			LANK			LTIP			LTOE			LMT1			LMT5			LHEE			RKNE			RTHI			RANK			RTIP			RTOE			RMT1			RMT5			LWTS			RHTS			RHPS			RHEE			RHIP			*53			*54			*55			
		X1	Y1	Z1	X2	Y2	Z2	X3	Y3	Z3	X4	Y4	Z4	X5	Y5	Z5	X6	Y6	Z6	X7	Y7	Z7	X8	Y8	Z8	X9	Y9	Z9	X10	Y10	Z10	X11	Y11	Z11	X12	Y12	Z12	X13	Y13	Z13	X14	Y14	Z14	X15	Y15	Z15	X16	Y16	Z16	X17	Y17	Z17	X18	Y18	Z18	X19	Y19	Z19	X20	Y20	Z20	X21	Y21	Z21	X22	Y22	Z22	X23	Y23	Z23	X24	Y24	Z24	X25	Y25	Z25	X26	Y26	Z26	X27	Y27	Z27	X28	Y28	Z28	X29	Y29	Z29	X30	Y30	Z30	X31	Y31	Z31	X32	Y32	Z32	X33	Y33	Z33	X34	Y34	Z34	X35	Y35	Z35	X36	Y36	Z36	X37	Y37	Z37	X38	Y38	Z38	X39	Y39	Z39	X40	Y40	Z40	X41	Y41	Z41	X42	Y42	Z42	X43	Y43	Z43	X44	Y44	Z44	X45	Y45	Z45	X46	Y46	Z46	X47	Y47	Z47	X48	Y48	Z48	X49	Y49	Z49	X50	Y50	Z50	X51	Y51	Z51	X52	Y52	Z52	X53	Y53	Z53	X54	Y54	Z54	X55	Y55	Z55	X56	Y56	Z56	

160	1.59	-545.8510131835938	973.1666259765625	861.1043701171875	-587.6756591796875	972.287353515625	690.4307861328125	-560.008544921875	1047.720947265625	757.2590942382812	-310.8565673828125	1223.556274414062	705.1212768554688	-572.5308837890625	1164.071533203125	747.3400268554688	-526.7635498046875	1408.360107421875	715.8070678710938	-371.9722900390625	1325.286743164062	706.64404296875	-571.0103149414062	1274.5185546875	802.8142700195312	-556.7359619140625	1368.033935546875	614.2893676757812	-472.6890563964844	1371.336791992188	552.7958984375	-493.0036315917969	1249.8818359375	484.5089416503906	-440.4544067382812	1061.433471679688	476.3878173828125	-499.4502563476562	1019.743103027344	525.4491577148438	-255.1290283203125	929.6174926757812	465.4060974121094	-372.6340637207031	993.4651489257812	468.2090759277344	-89.96479797363281	872.6904296875	530.053955078125	-179.8430328369141	883.8410034179688	472.2278137207031	-150.7720489501953	934.2601928710938	504.1318969726562	-441.3942565917969	1391.810668945312	866.47216796875	-447.8069458007812	1341.775756835938	935.4829711914062	-503.8257751464844	1093.408447265625	1013.036865234375	-513.4032592773438	1069.618530273438	922.0936889648438	-423.8699340820312	859.2855224609375	1042.147338867188	-487.3495788574219	873.8197021484375	1096.576293945312	-494.197265625	1030.618530273438	1046.547729492188	-443.6420593261719	677.2264404296875	1077.732666015625	-493.2939758300781	1561.4365234375	781.3065185546875	-366.6858215332031	1607.447509765625	616.1870727539062	-343.2072143554688	1614.456909179688	705.4366455078125	-529.629150390625	1540.1669921875	639.0870971679688	-544.3162841796875	925.0031127929688	578.3204956054688	-324.9115600585938	938.7033081054688	832.7316284179688	-396.0646057128906	931.169189453125	591.438232421875	-519.10986328125	464.947998046875	648.3755493164062	-511.0967712402344	603.78515625	607.965087890625	-679.6976928710938	54.64208602905273	721.2144165039062	-599.8788452148438	247.6424255371094	679.9453125	-478.8819274902344	37.82320404052734	803.8966064453125	-556.1743774414062	32.73203659057617	833.8214721679688	-555.7767333984375	46.72350311279297	723.4884033203125	-732.85986328125	52.69333267211914	774.6288452148438	-229.5268707275391	500.2827758789062	860.4432373046875	-308.63720703125	742.3510131835938	909.4046020507812	-111.5603103637695	58.09506607055664	848.5880126953125	-176.7891540527344	391.6125793457031	839.6414184570312	-2.313503980636597	127.7789535522461	695.5499877929688	-66.34378051757812	100.2203216552734	694.6235961914062	-18.44514846801758	83.98807525634766	802.4547729492188	-243.0737609863281	970.8587646484375	524.9464111328125	-417.0899658203125	748.0177001953125	1089.328979492188	-478.5965270996094	762.9295043945312	1122.414916992188	-179.8719024658203	36.96536254882812	838.95849609375	-416.0167846679688	930.5357055664062	935.2093505859375	nan	nan	nan	nan	nan	nan	nan	nan	nan	
161	1.6	-536.2952270507812	970.9150390625	860.557373046875	-579.0384521484375	970.0286254882812	690.0120239257812	-551.4853515625	1045.33056640625	756.4537353515625	-302.6896667480469	1221.749389648438	702.8788452148438	-564.19384765625	1162.068603515625	746.42041015625	-518.6063232421875	1406.442749023438	714.911865234375	-363.7439270019531	1323.46044921875	704.8583984375	-562.4842529296875	1272.515380859375	801.9228515625	-549.0394287109375	1366.165893554688	613.4437255859375	-465.1841125488281	1369.53759765625	551.4766235351562	-485.9009094238281	1248.06591796875	483.2735290527344	-433.2980041503906	1059.937744140625	474.8341064453125	-491.9415893554688	1017.858032226562	523.9882202148438	-246.0249481201172	931.3658447265625	463.9227905273438	-364.8289794921875	993.2703247070312	466.6351318359375	-80.04874420166016	877.2781372070312	529.3151245117188	-169.925048828125	886.8064575195312	471.0285339355469	-141.8459625244141	937.7194213867188	502.9737548828125	-432.5516357421875	1389.71630859375	865.1465454101562	-438.6954956054688	1339.697875976562	934.136474609375	-494.933837890625	1091.656494140625	1012.146057128906	-504.6209411621094	1067.609497070312	921.3739624023438	-416.5584411621094	857.1533813476562	1042.406982421875	-479.9909057617188	872.4741821289062	1096.717407226562	-485.556640625	1029.087768554688	1046.017822265625	-437.8985900878906	675.47705078125	1078.63671875	-484.7431335449219	1559.52978515625	780.4422607421875	-358.7785034179688	1605.578002929688	614.828125	-334.9474487304688	1612.470581054688	704.0098266601562	-521.6732177734375	1538.398681640625	638.3399658203125	-536.28369140625	923.0181884765625	577.7224731445312	-315.3094177246094	937.093505859375	830.6373901367188	-387.9402465820312	929.319091796875	589.7236328125	-514.4736328125	463.7716979980469	647.5830078125	-505.3411254882812	602.4310302734375	606.9345703125	-679.4851684570312	55.12052154541016	721.6296997070312	-597.5474243164062	247.4163360595703	679.8438720703125	-478.8341979980469	37.76692199707031	803.847900390625	-556.0570678710938	32.82748031616211	833.97265625	-555.7546997070312	46.74221038818359	723.514404296875	-732.697509765625	54.01051330566406	775.1539306640625	-219.900390625	498.3808898925781	858.060546875	-298.3728637695312	740.263671875	907.8492431640625	-95.12328338623047	58.00101852416992	840.6658325195312	-166.1114349365234	390.7931213378906	836.1608276367188	12.11929321289062	130.5394897460938	687.373046875	-51.67717361450195	102.3209838867188	686.938232421875	-2.618080377578735	85.3232421875	793.9386596679688	-234.7966461181641	972.8379516601562	523.4237060546875	-410.8059997558594	746.071044921875	1089.979248046875	-472.1801147460938	761.6234130859375	1122.973022460938	-163.3391723632812	36.27638626098633	831.5347290039062	-405.5733642578125	928.5928955078125	933.7587890625	nan	nan	nan	nan	nan	nan	nan	nan	nan	
162	1.61	-526.6454467773438	968.7113647460938	859.9718627929688	-570.2776489257812	967.8225708007812	689.5770263671875	-542.8220825195312	1043.005615234375	755.6065063476562	-294.4358825683594	1219.937377929688	700.6611328125	-555.7261962890625	1159.988159179688	745.4866333007812	-510.39990234375	1404.468872070312	714.012451171875	-355.4261474609375	1321.636352539062	703.0714111328125	-553.8544311523438	1270.413940429688	801.0272827148438	-541.2776489257812	1364.249267578125	612.5967407226562	-457.6711120605469	1367.705322265625	550.1609497070312	-478.8206787109375	1246.19921875	482.0552062988281	-426.1839904785156	1058.323364257812	473.2688293457031	-484.3363647460938	1015.9130859375	522.6826782226562	-237.3036346435547	932.5194702148438	462.2982788085938	-357.1835632324219	992.7664184570312	465.0079650878906	-70.62504577636719	880.8602294921875	528.21923828125	-160.5369720458984	888.9951171875	469.6010131835938	-133.2674255371094	940.3256225585938	501.5354614257812	-423.6528930664062	1387.584838867188	863.8202514648438	-429.4978332519531	1337.559814453125	932.7925415039062	-485.7329406738281	1089.7841796875	1011.304077148438	-495.6155395507812	1065.499145507812	920.6757202148438	-408.931884765625	854.9171142578125	1042.526000976562	-472.2354736328125	871.0327758789062	1096.809936523438	-476.5504455566406	1027.438842773438	1045.487548828125	-431.8986206054688	673.6422729492188	1079.4052734375	-476.1614990234375	1557.637451171875	779.54541015625	-350.8292846679688	1603.693359375	613.4288940429688	-326.647216796875	1610.487060546875	702.5424194335938	-513.671630859375	1536.620361328125	637.5703125	-528.1522827148438	921.0228271484375	577.2600708007812	-305.6182250976562	935.435791015625	828.5743408203125	-379.7237548828125	927.4163818359375	587.991455078125	-509.5451965332031	462.5480651855469	646.821533203125	-499.3318786621094	601.030517578125	605.9569091796875	-679.2326049804688	55.68368911743164	722.0872802734375	-595.0740966796875	247.2265167236328	679.78564453125	-478.7757263183594	37.70901489257812	803.7992553710938	-555.9024658203125	32.96165466308594	834.1561889648438	-555.7603759765625	46.78008651733398	723.5614013671875	-732.4938354492188	55.50963592529297	775.7183837890625	-210.0807647705078	496.6513366699219	855.3613891601562	-287.8836364746094	738.32666015625	906.1137084960938	-81.24449157714844	57.44475555419922	833.6809692382812	-155.6927795410156	389.700927734375	832.5809936523438	24.69686317443848	131.8466644287109	680.3343505859375	-38.9476203918457	103.233268737793	680.2598876953125	10.86855316162109	85.58278656005859	786.577880859375	-226.7152404785156	974.2108154296875	521.74658203125	-404.1567993164062	744.0402221679688	1090.472534179688	-465.3832702636719	760.2289428710938	1123.453002929688	-149.4236450195312	35.46327209472656	824.8959350585938	-395.0502624511719	926.6923217773438	932.3103637695312	nan	nan	nan	nan	nan	nan	nan	nan	nan	
163	1.62	-516.8698120117188	966.6117553710938	859.330078125	-561.3792724609375	965.7119750976562	689.1157836914062	-533.9994506835938	1040.8173828125	754.70751953125	-286.0889587402344	1218.145263671875	698.4708862304688	-547.0938720703125	1157.853149414062	744.5433349609375	-502.1452026367188	1402.453369140625	713.105712890625	-347.0215454101562	1319.834838867188	701.2850952148438	-545.1097412109375	1268.225463867188	800.1219482421875	-533.4457397460938	1362.302856445312	611.7446899414062	-450.1438598632812	1365.867797851562	548.8501586914062	-471.7517395019531	1244.311401367188	480.8583068847656	-419.1117858886719	1056.616577148438	471.69775390625	-476.6617736816406	1013.942077636719	521.5220947265625	-228.9525756835938	933.0634765625	460.5321960449219	-349.6766662597656	991.9577026367188	463.33349609375	-61.66567611694336	883.385009765625	526.749755859375	-151.6675567626953	890.3728637695312	467.936279296875	-125.0105743408203	942.0469360351562	499.8168334960938	-414.6994018554688	1385.44091796875	862.4939575195312	-420.2172241210938	1335.388061523438	931.4500732421875	-476.2362976074219	1087.812377929688	1010.49609375	-486.3736572265625	1063.307739257812	919.98095703125	-400.979736328125	852.6051635742188	1042.490356445312	-464.0759887695312	869.5133666992188	1096.826293945312	-467.1922607421875	1025.690063476562	1044.936767578125	-425.6090698242188	671.742919921875	1080.021362304688	-467.548583984375	1555.7880859375	778.61572265625	-342.84033203125	1601.815795898438	611.9859008789062	-318.306884765625	1608.533081054688	701.0283813476562	-505.6327514648438	1534.860473632812	636.78125	-519.8961181640625	919.0391235351562	576.8451538085938	-295.8248596191406	933.7506103515625	826.5300903320312	-371.4117736816406	925.4757690429688	586.2303466796875	-504.3002624511719	461.2972717285156	646.0872192382812	-493.0530395507812	599.6052856445312	605.0282592773438	-678.9427490234375	56.37439727783203	722.552978515625	-592.4290161132812	247.0877990722656	679.7500610351562	-478.7019958496094	37.64796829223633	803.74609375	-555.708740234375	33.135009765625	834.3564453125	-555.7694091796875	46.85411834716797	723.6285400390625	-732.2402954101562	57.21555328369141	776.287841796875	-200.0850067138672	495.1141357421875	852.3330078125	-277.2188415527344	736.5635375976562	904.1683959960938	-69.80342102050781	56.36749649047852	827.7032470703125	-145.5078582763672	388.3320617675781	828.8585815429688	35.40412902832031	131.5634918212891	674.304443359375	-28.19924163818359	102.854850769043	674.50830078125	22.08872604370117	84.67436218261719	780.3086547851562	-218.8076934814453	974.95703125	519.9193725585938	-397.1269226074219	741.9454956054688	1090.804321289062	-458.1921997070312	758.7562866210938	1123.818481445312	-138.0250091552734	34.48014831542969	819.1755981445312	-384.4451293945312	924.8707275390625	930.8492431640625	nan	nan	nan	nan	nan	nan	nan	nan	nan	
